<svg xmlns="http://www.w3.org/2000/svg" width="1280" height="1180" viewBox="0 0 1280 1180"><rect x="0" y="0" width="1280" height="1180" rx="0" fill="#ffffff" stroke="none" stroke-width="1.4"/><rect x="0" y="0" width="1280" height="62" rx="0" fill="#ebebeb" stroke="#8f8f8f" stroke-width="1.4"/><circle cx="90" cy="31" r="16" fill="#bdbdbd" stroke="#8f8f8f" stroke-width="1.2"/><text x="114" y="30" font-family="'Segoe UI', 'DejaVu Sans', Arial, sans-serif" font-size="16" font-weight="bold" fill="#3a3a3a" text-anchor="start">VIBE</text><text x="114" y="44" font-family="'Segoe UI', 'DejaVu Sans', Arial, sans-serif" font-size="9" font-weight="normal" fill="#777" text-anchor="start">BARBEARIA</text><text x="640" y="36" font-family="'Segoe UI', 'DejaVu Sans', Arial, sans-serif" font-size="12" font-weight="normal" fill="#3a3a3a" text-anchor="start">Serviços</text><text x="730" y="36" font-family="'Segoe UI', 'DejaVu Sans', Arial, sans-serif" font-size="12" font-weight="normal" fill="#3a3a3a" text-anchor="start">Barbeiros</text><text x="827" y="36" font-family="'Segoe UI', 'DejaVu Sans', Arial, sans-serif" font-size="12" font-weight="normal" fill="#3a3a3a" text-anchor="start">Fidelidade</text><text x="931" y="36" font-family="'Segoe UI', 'DejaVu Sans', Arial, sans-serif" font-size="12" font-weight="normal" fill="#3a3a3a" text-anchor="start">Área da equipe</text><rect x="1063" y="15" width="130" height="32" rx="6" fill="#5f5f5f" stroke="#5f5f5f" stroke-width="1.4"/><text x="1128.0" y="35.32" font-family="'Segoe UI', 'DejaVu Sans', Arial, sans-serif" font-size="12" font-weight="bold" fill="#ffffff" text-anchor="middle">Agendar online</text><circle cx="1210" cy="31" r="16" fill="#ffffff" stroke="#8f8f8f" stroke-width="1.2"/><text x="1210" y="36" font-family="'Segoe UI', 'DejaVu Sans', Arial, sans-serif" font-size="13" font-weight="normal" fill="#3a3a3a" text-anchor="middle">☀</text><rect x="0" y="1128" width="1280" height="52" rx="0" fill="#ebebeb" stroke="#8f8f8f" stroke-width="1.4"/><rect x="90" y="1150" width="156.0" height="8" rx="4" fill="#d4d4d4" stroke="none" stroke-width="1.4"/><rect x="920" y="1150" width="162.0" height="8" rx="4" fill="#d4d4d4" stroke="none" stroke-width="1.4"/><rect x="0" y="62" width="1280" height="360" rx="0" fill="#f4f4f4" stroke="#8f8f8f" stroke-width="1.4"/><rect x="90" y="110" width="84.0" height="8" rx="4" fill="#d4d4d4" stroke="none" stroke-width="1.4"/><text x="90" y="175" font-family="'Segoe UI', 'DejaVu Sans', Arial, sans-serif" font-size="40" font-weight="bold" fill="#3a3a3a" text-anchor="start">Seu estilo, no seu horário.</text><rect x="90" y="205" width="440" height="8" rx="4" fill="#d4d4d4" stroke="none" stroke-width="1.4"/><rect x="90" y="220" width="264.0" height="8" rx="4" fill="#d4d4d4" stroke="none" stroke-width="1.4"/><rect x="90" y="260" width="140" height="40" rx="6" fill="#5f5f5f" stroke="#5f5f5f" stroke-width="1.4"/><text x="160.0" y="284.32" font-family="'Segoe UI', 'DejaVu Sans', Arial, sans-serif" font-size="12" font-weight="bold" fill="#ffffff" text-anchor="middle">Agendar agora</text><rect x="242" y="260" width="160" height="40" rx="6" fill="#ffffff" stroke="#5f5f5f" stroke-width="1.4"/><text x="322.0" y="284.32" font-family="'Segoe UI', 'DejaVu Sans', Arial, sans-serif" font-size="12" font-weight="bold" fill="#3a3a3a" text-anchor="middle">Simular meus pontos</text><rect x="800" y="100" width="390" height="250" rx="8" fill="#ffffff" stroke="#5f5f5f" stroke-width="2.2"/><text x="816" y="126" font-family="'Segoe UI', 'DejaVu Sans', Arial, sans-serif" font-size="14" font-weight="bold" fill="#3a3a3a" text-anchor="start">Agora na Vibe</text><text x="816" y="160" font-family="'Segoe UI', 'DejaVu Sans', Arial, sans-serif" font-size="12" font-weight="normal" fill="#3a3a3a" text-anchor="start">● Aberto agora</text><rect x="1060" y="152" width="66.0" height="8" rx="4" fill="#d4d4d4" stroke="none" stroke-width="1.4"/><text x="816" y="194" font-family="'Segoe UI', 'DejaVu Sans', Arial, sans-serif" font-size="12" font-weight="normal" fill="#3a3a3a" text-anchor="start">Próximo horário livre</text><rect x="1060" y="186" width="66.0" height="8" rx="4" fill="#d4d4d4" stroke="none" stroke-width="1.4"/><text x="816" y="228" font-family="'Segoe UI', 'DejaVu Sans', Arial, sans-serif" font-size="12" font-weight="normal" fill="#3a3a3a" text-anchor="start">Barbeiros atendendo</text><rect x="1060" y="220" width="66.0" height="8" rx="4" fill="#d4d4d4" stroke="none" stroke-width="1.4"/><text x="816" y="262" font-family="'Segoe UI', 'DejaVu Sans', Arial, sans-serif" font-size="12" font-weight="normal" fill="#3a3a3a" text-anchor="start">Horário</text><rect x="1060" y="254" width="66.0" height="8" rx="4" fill="#d4d4d4" stroke="none" stroke-width="1.4"/><rect x="816" y="296" width="358" height="38" rx="6" fill="#5f5f5f" stroke="#5f5f5f" stroke-width="1.4"/><text x="995.0" y="319.32" font-family="'Segoe UI', 'DejaVu Sans', Arial, sans-serif" font-size="12" font-weight="bold" fill="#ffffff" text-anchor="middle">Reservar este horário</text><circle cx="780" cy="100" r="11" fill="#ffffff" stroke="#5f5f5f" stroke-width="1.2"/><text x="780" y="104" font-family="'Segoe UI', 'DejaVu Sans', Arial, sans-serif" font-size="11" font-weight="bold" fill="#3a3a3a" text-anchor="middle">1</text><text x="640.0" y="470" font-family="'Segoe UI', 'DejaVu Sans', Arial, sans-serif" font-size="22" font-weight="bold" fill="#3a3a3a" text-anchor="middle">Serviços e preços</text><rect x="440.0" y="485" width="240.0" height="8" rx="4" fill="#d4d4d4" stroke="none" stroke-width="1.4"/><rect x="90" y="520" width="260" height="130" rx="8" fill="#ffffff" stroke="#8f8f8f" stroke-width="1.4"/><rect x="106" y="540" width="84.0" height="10" rx="4" fill="#d4d4d4" stroke="none" stroke-width="1.4"/><rect x="106" y="566" width="220" height="8" rx="4" fill="#d4d4d4" stroke="none" stroke-width="1.4"/><rect x="106" y="581" width="132.0" height="8" rx="4" fill="#d4d4d4" stroke="none" stroke-width="1.4"/><rect x="106" y="620" width="42.0" height="12" rx="4" fill="#bdbdbd" stroke="none" stroke-width="1.4"/><text x="290" y="630" font-family="'Segoe UI', 'DejaVu Sans', Arial, sans-serif" font-size="11" font-weight="bold" fill="#3a3a3a" text-anchor="start">Agendar →</text><rect x="370" y="520" width="260" height="130" rx="8" fill="#ffffff" stroke="#8f8f8f" stroke-width="1.4"/><rect x="386" y="540" width="84.0" height="10" rx="4" fill="#d4d4d4" stroke="none" stroke-width="1.4"/><rect x="386" y="566" width="220" height="8" rx="4" fill="#d4d4d4" stroke="none" stroke-width="1.4"/><rect x="386" y="581" width="132.0" height="8" rx="4" fill="#d4d4d4" stroke="none" stroke-width="1.4"/><rect x="386" y="620" width="42.0" height="12" rx="4" fill="#bdbdbd" stroke="none" stroke-width="1.4"/><text x="570" y="630" font-family="'Segoe UI', 'DejaVu Sans', Arial, sans-serif" font-size="11" font-weight="bold" fill="#3a3a3a" text-anchor="start">Agendar →</text><rect x="650" y="520" width="260" height="130" rx="8" fill="#ffffff" stroke="#8f8f8f" stroke-width="1.4"/><rect x="666" y="540" width="84.0" height="10" rx="4" fill="#d4d4d4" stroke="none" stroke-width="1.4"/><rect x="666" y="566" width="220" height="8" rx="4" fill="#d4d4d4" stroke="none" stroke-width="1.4"/><rect x="666" y="581" width="132.0" height="8" rx="4" fill="#d4d4d4" stroke="none" stroke-width="1.4"/><rect x="666" y="620" width="42.0" height="12" rx="4" fill="#bdbdbd" stroke="none" stroke-width="1.4"/><text x="850" y="630" font-family="'Segoe UI', 'DejaVu Sans', Arial, sans-serif" font-size="11" font-weight="bold" fill="#3a3a3a" text-anchor="start">Agendar →</text><rect x="930" y="520" width="260" height="130" rx="8" fill="#ffffff" stroke="#8f8f8f" stroke-width="1.4"/><rect x="946" y="540" width="84.0" height="10" rx="4" fill="#d4d4d4" stroke="none" stroke-width="1.4"/><rect x="946" y="566" width="220" height="8" rx="4" fill="#d4d4d4" stroke="none" stroke-width="1.4"/><rect x="946" y="581" width="132.0" height="8" rx="4" fill="#d4d4d4" stroke="none" stroke-width="1.4"/><rect x="946" y="620" width="42.0" height="12" rx="4" fill="#bdbdbd" stroke="none" stroke-width="1.4"/><text x="1130" y="630" font-family="'Segoe UI', 'DejaVu Sans', Arial, sans-serif" font-size="11" font-weight="bold" fill="#3a3a3a" text-anchor="start">Agendar →</text><rect x="90" y="670" width="260" height="130" rx="8" fill="#ffffff" stroke="#8f8f8f" stroke-width="1.4"/><rect x="106" y="690" width="84.0" height="10" rx="4" fill="#d4d4d4" stroke="none" stroke-width="1.4"/><rect x="106" y="716" width="220" height="8" rx="4" fill="#d4d4d4" stroke="none" stroke-width="1.4"/><rect x="106" y="731" width="132.0" height="8" rx="4" fill="#d4d4d4" stroke="none" stroke-width="1.4"/><rect x="106" y="770" width="42.0" height="12" rx="4" fill="#bdbdbd" stroke="none" stroke-width="1.4"/><text x="290" y="780" font-family="'Segoe UI', 'DejaVu Sans', Arial, sans-serif" font-size="11" font-weight="bold" fill="#3a3a3a" text-anchor="start">Agendar →</text><rect x="370" y="670" width="260" height="130" rx="8" fill="#ffffff" stroke="#8f8f8f" stroke-width="1.4"/><rect x="386" y="690" width="84.0" height="10" rx="4" fill="#d4d4d4" stroke="none" stroke-width="1.4"/><rect x="386" y="716" width="220" height="8" rx="4" fill="#d4d4d4" stroke="none" stroke-width="1.4"/><rect x="386" y="731" width="132.0" height="8" rx="4" fill="#d4d4d4" stroke="none" stroke-width="1.4"/><rect x="386" y="770" width="42.0" height="12" rx="4" fill="#bdbdbd" stroke="none" stroke-width="1.4"/><text x="570" y="780" font-family="'Segoe UI', 'DejaVu Sans', Arial, sans-serif" font-size="11" font-weight="bold" fill="#3a3a3a" text-anchor="start">Agendar →</text><rect x="650" y="670" width="260" height="130" rx="8" fill="#ffffff" stroke="#8f8f8f" stroke-width="1.4"/><rect x="666" y="690" width="84.0" height="10" rx="4" fill="#d4d4d4" stroke="none" stroke-width="1.4"/><rect x="666" y="716" width="220" height="8" rx="4" fill="#d4d4d4" stroke="none" stroke-width="1.4"/><rect x="666" y="731" width="132.0" height="8" rx="4" fill="#d4d4d4" stroke="none" stroke-width="1.4"/><rect x="666" y="770" width="42.0" height="12" rx="4" fill="#bdbdbd" stroke="none" stroke-width="1.4"/><text x="850" y="780" font-family="'Segoe UI', 'DejaVu Sans', Arial, sans-serif" font-size="11" font-weight="bold" fill="#3a3a3a" text-anchor="start">Agendar →</text><rect x="930" y="670" width="260" height="130" rx="8" fill="#ffffff" stroke="#8f8f8f" stroke-width="1.4"/><rect x="946" y="690" width="84.0" height="10" rx="4" fill="#d4d4d4" stroke="none" stroke-width="1.4"/><rect x="946" y="716" width="220" height="8" rx="4" fill="#d4d4d4" stroke="none" stroke-width="1.4"/><rect x="946" y="731" width="132.0" height="8" rx="4" fill="#d4d4d4" stroke="none" stroke-width="1.4"/><rect x="946" y="770" width="42.0" height="12" rx="4" fill="#bdbdbd" stroke="none" stroke-width="1.4"/><text x="1130" y="780" font-family="'Segoe UI', 'DejaVu Sans', Arial, sans-serif" font-size="11" font-weight="bold" fill="#3a3a3a" text-anchor="start">Agendar →</text><circle cx="70" cy="520" r="11" fill="#ffffff" stroke="#5f5f5f" stroke-width="1.2"/><text x="70" y="524" font-family="'Segoe UI', 'DejaVu Sans', Arial, sans-serif" font-size="11" font-weight="bold" fill="#3a3a3a" text-anchor="middle">2</text><text x="640.0" y="860" font-family="'Segoe UI', 'DejaVu Sans', Arial, sans-serif" font-size="22" font-weight="bold" fill="#3a3a3a" text-anchor="middle">Nossa equipe</text><rect x="90" y="890" width="260" height="140" rx="8" fill="#ffffff" stroke="#8f8f8f" stroke-width="1.4"/><circle cx="140" cy="940" r="30" fill="#bdbdbd" stroke="#8f8f8f" stroke-width="1.2"/><rect x="186" y="925" width="130" height="8" rx="4" fill="#d4d4d4" stroke="none" stroke-width="1.4"/><rect x="186" y="940" width="78.0" height="8" rx="4" fill="#d4d4d4" stroke="none" stroke-width="1.4"/><rect x="106" y="984" width="228" height="30" rx="6" fill="#ffffff" stroke="#5f5f5f" stroke-width="1.4"/><text x="220.0" y="1003.32" font-family="'Segoe UI', 'DejaVu Sans', Arial, sans-serif" font-size="12" font-weight="bold" fill="#3a3a3a" text-anchor="middle">Agendar com ele</text><rect x="370" y="890" width="260" height="140" rx="8" fill="#ffffff" stroke="#8f8f8f" stroke-width="1.4"/><circle cx="420" cy="940" r="30" fill="#bdbdbd" stroke="#8f8f8f" stroke-width="1.2"/><rect x="466" y="925" width="130" height="8" rx="4" fill="#d4d4d4" stroke="none" stroke-width="1.4"/><rect x="466" y="940" width="78.0" height="8" rx="4" fill="#d4d4d4" stroke="none" stroke-width="1.4"/><rect x="386" y="984" width="228" height="30" rx="6" fill="#ffffff" stroke="#5f5f5f" stroke-width="1.4"/><text x="500.0" y="1003.32" font-family="'Segoe UI', 'DejaVu Sans', Arial, sans-serif" font-size="12" font-weight="bold" fill="#3a3a3a" text-anchor="middle">Agendar com ele</text><rect x="650" y="890" width="260" height="140" rx="8" fill="#ffffff" stroke="#8f8f8f" stroke-width="1.4"/><circle cx="700" cy="940" r="30" fill="#bdbdbd" stroke="#8f8f8f" stroke-width="1.2"/><rect x="746" y="925" width="130" height="8" rx="4" fill="#d4d4d4" stroke="none" stroke-width="1.4"/><rect x="746" y="940" width="78.0" height="8" rx="4" fill="#d4d4d4" stroke="none" stroke-width="1.4"/><rect x="666" y="984" width="228" height="30" rx="6" fill="#ffffff" stroke="#5f5f5f" stroke-width="1.4"/><text x="780.0" y="1003.32" font-family="'Segoe UI', 'DejaVu Sans', Arial, sans-serif" font-size="12" font-weight="bold" fill="#3a3a3a" text-anchor="middle">Agendar com ele</text><rect x="930" y="890" width="260" height="140" rx="8" fill="#ffffff" stroke="#8f8f8f" stroke-width="1.4"/><circle cx="980" cy="940" r="30" fill="#bdbdbd" stroke="#8f8f8f" stroke-width="1.2"/><rect x="1026" y="925" width="130" height="8" rx="4" fill="#d4d4d4" stroke="none" stroke-width="1.4"/><rect x="1026" y="940" width="78.0" height="8" rx="4" fill="#d4d4d4" stroke="none" stroke-width="1.4"/><rect x="946" y="984" width="228" height="30" rx="6" fill="#ffffff" stroke="#5f5f5f" stroke-width="1.4"/><text x="1060.0" y="1003.32" font-family="'Segoe UI', 'DejaVu Sans', Arial, sans-serif" font-size="12" font-weight="bold" fill="#3a3a3a" text-anchor="middle">Agendar com ele</text><rect x="90" y="1050" width="1100" height="70" rx="8" fill="#ebebeb" stroke="#8f8f8f" stroke-width="1.4"/><text x="110" y="1092" font-family="'Segoe UI', 'DejaVu Sans', Arial, sans-serif" font-size="14" font-weight="bold" fill="#3a3a3a" text-anchor="start">Programa de fidelidade: R$ 10 = 1 ponto · 100 pontos = R$ 10 de desconto</text><rect x="1020" y="1066" width="150" height="36" rx="6" fill="#5f5f5f" stroke="#5f5f5f" stroke-width="1.4"/><text x="1095.0" y="1088.32" font-family="'Segoe UI', 'DejaVu Sans', Arial, sans-serif" font-size="12" font-weight="bold" fill="#ffffff" text-anchor="middle">Simular pontos</text></svg>