<svg xmlns="http://www.w3.org/2000/svg" width="1280" height="800" viewBox="0 0 1280 800"><rect x="0" y="0" width="1280" height="800" rx="0" fill="#ffffff" stroke="none" stroke-width="1.4"/><rect x="0" y="0" width="230" height="800" rx="0" fill="#ebebeb" stroke="#8f8f8f" stroke-width="1.4"/><circle cx="32" cy="32" r="16" fill="#bdbdbd" stroke="#8f8f8f" stroke-width="1.2"/><text x="56" y="30" font-family="'Segoe UI', 'DejaVu Sans', Arial, sans-serif" font-size="16" font-weight="bold" fill="#3a3a3a" text-anchor="start">VIBE</text><text x="56" y="44" font-family="'Segoe UI', 'DejaVu Sans', Arial, sans-serif" font-size="9" font-weight="normal" fill="#777" text-anchor="start">BARBEARIA</text><rect x="20" y="83" width="16" height="16" rx="3" fill="#bdbdbd" stroke="none" stroke-width="1.4"/><text x="46" y="96" font-family="'Segoe UI', 'DejaVu Sans', Arial, sans-serif" font-size="12" font-weight="normal" fill="#3a3a3a" text-anchor="start">Dashboard</text><rect x="0" y="112" width="230" height="36" rx="0" fill="#5f5f5f" stroke="none" stroke-width="1.4"/><rect x="20" y="123" width="16" height="16" rx="3" fill="#ffffff" stroke="none" stroke-width="1.4"/><text x="46" y="136" font-family="'Segoe UI', 'DejaVu Sans', Arial, sans-serif" font-size="12" font-weight="bold" fill="#ffffff" text-anchor="start">Agenda</text><rect x="20" y="163" width="16" height="16" rx="3" fill="#bdbdbd" stroke="none" stroke-width="1.4"/><text x="46" y="176" font-family="'Segoe UI', 'DejaVu Sans', Arial, sans-serif" font-size="12" font-weight="normal" fill="#3a3a3a" text-anchor="start">Clientes</text><rect x="20" y="203" width="16" height="16" rx="3" fill="#bdbdbd" stroke="none" stroke-width="1.4"/><text x="46" y="216" font-family="'Segoe UI', 'DejaVu Sans', Arial, sans-serif" font-size="12" font-weight="normal" fill="#3a3a3a" text-anchor="start">Funcionários</text><rect x="20" y="243" width="16" height="16" rx="3" fill="#bdbdbd" stroke="none" stroke-width="1.4"/><text x="46" y="256" font-family="'Segoe UI', 'DejaVu Sans', Arial, sans-serif" font-size="12" font-weight="normal" fill="#3a3a3a" text-anchor="start">Serviços e produtos</text><rect x="20" y="283" width="16" height="16" rx="3" fill="#bdbdbd" stroke="none" stroke-width="1.4"/><text x="46" y="296" font-family="'Segoe UI', 'DejaVu Sans', Arial, sans-serif" font-size="12" font-weight="normal" fill="#3a3a3a" text-anchor="start">Atendimento</text><rect x="20" y="323" width="16" height="16" rx="3" fill="#bdbdbd" stroke="none" stroke-width="1.4"/><text x="46" y="336" font-family="'Segoe UI', 'DejaVu Sans', Arial, sans-serif" font-size="12" font-weight="normal" fill="#3a3a3a" text-anchor="start">Caixa</text><rect x="20" y="363" width="16" height="16" rx="3" fill="#bdbdbd" stroke="none" stroke-width="1.4"/><text x="46" y="376" font-family="'Segoe UI', 'DejaVu Sans', Arial, sans-serif" font-size="12" font-weight="normal" fill="#3a3a3a" text-anchor="start">Relatórios</text><rect x="20" y="403" width="16" height="16" rx="3" fill="#bdbdbd" stroke="none" stroke-width="1.4"/><text x="46" y="416" font-family="'Segoe UI', 'DejaVu Sans', Arial, sans-serif" font-size="12" font-weight="normal" fill="#3a3a3a" text-anchor="start">Alterar senha</text><rect x="14" y="452" width="202" height="52" rx="8" fill="#ffffff" stroke="#8f8f8f" stroke-width="1.4"/><circle cx="38" cy="478" r="14" fill="#bdbdbd" stroke="#8f8f8f" stroke-width="1.2"/><text x="60" y="474" font-family="'Segoe UI', 'DejaVu Sans', Arial, sans-serif" font-size="12" font-weight="bold" fill="#3a3a3a" text-anchor="start">Nome do usuário</text><text x="60" y="490" font-family="'Segoe UI', 'DejaVu Sans', Arial, sans-serif" font-size="10" font-weight="normal" fill="#777" text-anchor="start">Perfil</text><rect x="14" y="514" width="202" height="36" rx="6" fill="#ffffff" stroke="#5f5f5f" stroke-width="1.4"/><text x="115.0" y="536.32" font-family="'Segoe UI', 'DejaVu Sans', Arial, sans-serif" font-size="12" font-weight="bold" fill="#3a3a3a" text-anchor="middle">⇥  Sair</text><rect x="230" y="0" width="1050" height="62" rx="0" fill="#ffffff" stroke="#8f8f8f" stroke-width="1.4"/><text x="256" y="30" font-family="'Segoe UI', 'DejaVu Sans', Arial, sans-serif" font-size="19" font-weight="bold" fill="#3a3a3a" text-anchor="start">Agenda de Horários</text><text x="256" y="48" font-family="'Segoe UI', 'DejaVu Sans', Arial, sans-serif" font-size="11" font-weight="normal" fill="#777" text-anchor="start">Agendamentos por dia e por barbeiro</text><circle cx="1240" cy="31" r="16" fill="#ffffff" stroke="#8f8f8f" stroke-width="1.2"/><text x="1240" y="36" font-family="'Segoe UI', 'DejaVu Sans', Arial, sans-serif" font-size="13" font-weight="normal" fill="#3a3a3a" text-anchor="middle">☀</text><rect x="256" y="86" width="998" height="80" rx="8" fill="#ffffff" stroke="#8f8f8f" stroke-width="1.4"/><circle cx="286" cy="134" r="13" fill="#fff" stroke="#8f8f8f" stroke-width="1.2"/><rect x="306" y="120" width="50" height="28" rx="6" fill="#ffffff" stroke="#5f5f5f" stroke-width="1.4"/><text x="331.0" y="138.32" font-family="'Segoe UI', 'DejaVu Sans', Arial, sans-serif" font-size="12" font-weight="bold" fill="#3a3a3a" text-anchor="middle">Hoje</text><circle cx="376" cy="134" r="13" fill="#fff" stroke="#8f8f8f" stroke-width="1.2"/><text x="406" y="111" font-family="'Segoe UI', 'DejaVu Sans', Arial, sans-serif" font-size="11" font-weight="bold" fill="#3a3a3a" text-anchor="start">Data (dd/mm/aaaa)</text><rect x="406" y="118" width="140" height="32" rx="5" fill="#f4f4f4" stroke="#8f8f8f" stroke-width="1.4"/><text x="416" y="138.0" font-family="'Segoe UI', 'DejaVu Sans', Arial, sans-serif" font-size="11" font-weight="normal" fill="#9a9a9a" text-anchor="start">07/10/2026</text><rect x="554" y="118" width="40" height="32" rx="6" fill="#ffffff" stroke="#5f5f5f" stroke-width="1.4"/><text x="574.0" y="138.32" font-family="'Segoe UI', 'DejaVu Sans', Arial, sans-serif" font-size="12" font-weight="bold" fill="#3a3a3a" text-anchor="middle">Ir</text><text x="612" y="111" font-family="'Segoe UI', 'DejaVu Sans', Arial, sans-serif" font-size="11" font-weight="bold" fill="#3a3a3a" text-anchor="start">Barbeiro</text><rect x="612" y="118" width="230" height="32" rx="5" fill="#f4f4f4" stroke="#8f8f8f" stroke-width="1.4"/><text x="622" y="138.0" font-family="'Segoe UI', 'DejaVu Sans', Arial, sans-serif" font-size="11" font-weight="normal" fill="#9a9a9a" text-anchor="start">Todos os barbeiros</text><text x="826" y="138.0" font-family="'Segoe UI', 'DejaVu Sans', Arial, sans-serif" font-size="12" font-weight="normal" fill="#3a3a3a" text-anchor="start">▾</text><rect x="860" y="120" width="56" height="28" rx="6" fill="#bdbdbd" stroke="#5f5f5f" stroke-width="2"/><text x="888.0" y="138.0" font-family="'Segoe UI', 'DejaVu Sans', Arial, sans-serif" font-size="11" font-weight="bold" fill="#3a3a3a" text-anchor="middle">Lista</text><rect x="920" y="120" width="110" height="28" rx="6" fill="#ffffff" stroke="#8f8f8f" stroke-width="1.2"/><text x="975.0" y="138.0" font-family="'Segoe UI', 'DejaVu Sans', Arial, sans-serif" font-size="11" font-weight="bold" fill="#3a3a3a" text-anchor="middle">Linha do tempo</text><rect x="1078" y="116" width="160" height="36" rx="6" fill="#5f5f5f" stroke="#5f5f5f" stroke-width="1.4"/><text x="1158.0" y="138.32" font-family="'Segoe UI', 'DejaVu Sans', Arial, sans-serif" font-size="12" font-weight="bold" fill="#ffffff" text-anchor="middle">Novo Agendamento</text><text x="256" y="206" font-family="'Segoe UI', 'DejaVu Sans', Arial, sans-serif" font-size="15" font-weight="bold" fill="#3a3a3a" text-anchor="start">Quarta-feira, 07/10/2026 — visão linha do tempo</text><circle cx="340.0" cy="238" r="12" fill="#bdbdbd" stroke="#8f8f8f" stroke-width="1.2"/><rect x="360.0" y="234" width="48.0" height="8" rx="4" fill="#d4d4d4" stroke="none" stroke-width="1.4"/><circle cx="572.0" cy="238" r="12" fill="#bdbdbd" stroke="#8f8f8f" stroke-width="1.2"/><rect x="592.0" y="234" width="48.0" height="8" rx="4" fill="#d4d4d4" stroke="none" stroke-width="1.4"/><circle cx="804.0" cy="238" r="12" fill="#bdbdbd" stroke="#8f8f8f" stroke-width="1.2"/><rect x="824.0" y="234" width="48.0" height="8" rx="4" fill="#d4d4d4" stroke="none" stroke-width="1.4"/><circle cx="1036.0" cy="238" r="12" fill="#bdbdbd" stroke="#8f8f8f" stroke-width="1.2"/><rect x="1056.0" y="234" width="48.0" height="8" rx="4" fill="#d4d4d4" stroke="none" stroke-width="1.4"/><text x="266" y="284" font-family="'Segoe UI', 'DejaVu Sans', Arial, sans-serif" font-size="11" font-weight="normal" fill="#3a3a3a" text-anchor="start">09:00</text><rect x="326.0" y="258" width="226.0" height="36" rx="4" fill="#f4f4f4" stroke="#8f8f8f" stroke-width="1.4"/><rect x="558.0" y="258" width="226.0" height="36" rx="4" fill="#f4f4f4" stroke="#8f8f8f" stroke-width="1.4"/><rect x="790.0" y="258" width="226.0" height="36" rx="4" fill="#f4f4f4" stroke="#8f8f8f" stroke-width="1.4"/><rect x="1022.0" y="258" width="226.0" height="36" rx="4" fill="#bdbdbd" stroke="#8f8f8f" stroke-width="1.4"/><rect x="1022.0" y="258" width="5" height="36" rx="2" fill="#5f5f5f" stroke="none" stroke-width="1.4"/><rect x="1036.0" y="268" width="90" height="6" rx="4" fill="#ffffff" stroke="none" stroke-width="1.4"/><rect x="1036.0" y="279" width="54.0" height="6" rx="4" fill="#ffffff" stroke="none" stroke-width="1.4"/><text x="266" y="326" font-family="'Segoe UI', 'DejaVu Sans', Arial, sans-serif" font-size="11" font-weight="normal" fill="#3a3a3a" text-anchor="start">09:30</text><rect x="326.0" y="300" width="226.0" height="36" rx="4" fill="#f4f4f4" stroke="#8f8f8f" stroke-width="1.4"/><rect x="558.0" y="300" width="226.0" height="36" rx="4" fill="#f4f4f4" stroke="#8f8f8f" stroke-width="1.4"/><rect x="790.0" y="300" width="226.0" height="36" rx="4" fill="#f4f4f4" stroke="#8f8f8f" stroke-width="1.4"/><rect x="1022.0" y="300" width="226.0" height="36" rx="4" fill="#f4f4f4" stroke="#8f8f8f" stroke-width="1.4"/><text x="266" y="368" font-family="'Segoe UI', 'DejaVu Sans', Arial, sans-serif" font-size="11" font-weight="normal" fill="#3a3a3a" text-anchor="start">10:00</text><rect x="326.0" y="342" width="226.0" height="36" rx="4" fill="#f4f4f4" stroke="#8f8f8f" stroke-width="1.4"/><rect x="558.0" y="342" width="226.0" height="36" rx="4" fill="#f4f4f4" stroke="#8f8f8f" stroke-width="1.4"/><rect x="790.0" y="342" width="226.0" height="36" rx="4" fill="#bdbdbd" stroke="#8f8f8f" stroke-width="1.4"/><rect x="790.0" y="342" width="5" height="36" rx="2" fill="#5f5f5f" stroke="none" stroke-width="1.4"/><rect x="804.0" y="352" width="90" height="6" rx="4" fill="#ffffff" stroke="none" stroke-width="1.4"/><rect x="804.0" y="363" width="54.0" height="6" rx="4" fill="#ffffff" stroke="none" stroke-width="1.4"/><rect x="1022.0" y="342" width="226.0" height="36" rx="4" fill="#f4f4f4" stroke="#8f8f8f" stroke-width="1.4"/><text x="266" y="410" font-family="'Segoe UI', 'DejaVu Sans', Arial, sans-serif" font-size="11" font-weight="normal" fill="#3a3a3a" text-anchor="start">10:30</text><rect x="326.0" y="384" width="226.0" height="36" rx="4" fill="#f4f4f4" stroke="#8f8f8f" stroke-width="1.4"/><rect x="558.0" y="384" width="226.0" height="36" rx="4" fill="#f4f4f4" stroke="#8f8f8f" stroke-width="1.4"/><rect x="790.0" y="384" width="226.0" height="36" rx="4" fill="#f4f4f4" stroke="#8f8f8f" stroke-width="1.4"/><rect x="1022.0" y="384" width="226.0" height="36" rx="4" fill="#f4f4f4" stroke="#8f8f8f" stroke-width="1.4"/><text x="266" y="452" font-family="'Segoe UI', 'DejaVu Sans', Arial, sans-serif" font-size="11" font-weight="normal" fill="#3a3a3a" text-anchor="start">11:00</text><rect x="326.0" y="426" width="226.0" height="36" rx="4" fill="#f4f4f4" stroke="#8f8f8f" stroke-width="1.4"/><rect x="558.0" y="426" width="226.0" height="36" rx="4" fill="#bdbdbd" stroke="#8f8f8f" stroke-width="1.4"/><rect x="558.0" y="426" width="5" height="36" rx="2" fill="#5f5f5f" stroke="none" stroke-width="1.4"/><rect x="572.0" y="436" width="90" height="6" rx="4" fill="#ffffff" stroke="none" stroke-width="1.4"/><rect x="572.0" y="447" width="54.0" height="6" rx="4" fill="#ffffff" stroke="none" stroke-width="1.4"/><rect x="790.0" y="426" width="226.0" height="36" rx="4" fill="#f4f4f4" stroke="#8f8f8f" stroke-width="1.4"/><rect x="1022.0" y="426" width="226.0" height="36" rx="4" fill="#f4f4f4" stroke="#8f8f8f" stroke-width="1.4"/><text x="266" y="494" font-family="'Segoe UI', 'DejaVu Sans', Arial, sans-serif" font-size="11" font-weight="normal" fill="#3a3a3a" text-anchor="start">11:30</text><rect x="326.0" y="468" width="226.0" height="36" rx="4" fill="#f4f4f4" stroke="#8f8f8f" stroke-width="1.4"/><rect x="558.0" y="468" width="226.0" height="36" rx="4" fill="#f4f4f4" stroke="#8f8f8f" stroke-width="1.4"/><rect x="790.0" y="468" width="226.0" height="36" rx="4" fill="#f4f4f4" stroke="#8f8f8f" stroke-width="1.4"/><rect x="1022.0" y="468" width="226.0" height="36" rx="4" fill="#f4f4f4" stroke="#8f8f8f" stroke-width="1.4"/><text x="266" y="536" font-family="'Segoe UI', 'DejaVu Sans', Arial, sans-serif" font-size="11" font-weight="normal" fill="#3a3a3a" text-anchor="start">12:00</text><rect x="326.0" y="510" width="226.0" height="36" rx="4" fill="#f4f4f4" stroke="#8f8f8f" stroke-width="1.4"/><rect x="558.0" y="510" width="226.0" height="36" rx="4" fill="#f4f4f4" stroke="#8f8f8f" stroke-width="1.4"/><rect x="790.0" y="510" width="226.0" height="36" rx="4" fill="#f4f4f4" stroke="#8f8f8f" stroke-width="1.4"/><rect x="1022.0" y="510" width="226.0" height="36" rx="4" fill="#f4f4f4" stroke="#8f8f8f" stroke-width="1.4"/><text x="266" y="578" font-family="'Segoe UI', 'DejaVu Sans', Arial, sans-serif" font-size="11" font-weight="normal" fill="#3a3a3a" text-anchor="start">12:30</text><rect x="326.0" y="552" width="226.0" height="36" rx="4" fill="#f4f4f4" stroke="#8f8f8f" stroke-width="1.4"/><rect x="558.0" y="552" width="226.0" height="36" rx="4" fill="#f4f4f4" stroke="#8f8f8f" stroke-width="1.4"/><rect x="790.0" y="552" width="226.0" height="36" rx="4" fill="#f4f4f4" stroke="#8f8f8f" stroke-width="1.4"/><rect x="1022.0" y="552" width="226.0" height="36" rx="4" fill="#f4f4f4" stroke="#8f8f8f" stroke-width="1.4"/><text x="266" y="620" font-family="'Segoe UI', 'DejaVu Sans', Arial, sans-serif" font-size="11" font-weight="normal" fill="#3a3a3a" text-anchor="start">13:00</text><rect x="326.0" y="594" width="226.0" height="36" rx="4" fill="#f4f4f4" stroke="#8f8f8f" stroke-width="1.4"/><rect x="558.0" y="594" width="226.0" height="36" rx="4" fill="#f4f4f4" stroke="#8f8f8f" stroke-width="1.4"/><rect x="790.0" y="594" width="226.0" height="36" rx="4" fill="#f4f4f4" stroke="#8f8f8f" stroke-width="1.4"/><rect x="1022.0" y="594" width="226.0" height="36" rx="4" fill="#f4f4f4" stroke="#8f8f8f" stroke-width="1.4"/><text x="266" y="662" font-family="'Segoe UI', 'DejaVu Sans', Arial, sans-serif" font-size="11" font-weight="normal" fill="#3a3a3a" text-anchor="start">13:30</text><rect x="326.0" y="636" width="226.0" height="36" rx="4" fill="#f4f4f4" stroke="#8f8f8f" stroke-width="1.4"/><rect x="558.0" y="636" width="226.0" height="36" rx="4" fill="#f4f4f4" stroke="#8f8f8f" stroke-width="1.4"/><rect x="790.0" y="636" width="226.0" height="36" rx="4" fill="#f4f4f4" stroke="#8f8f8f" stroke-width="1.4"/><rect x="1022.0" y="636" width="226.0" height="36" rx="4" fill="#f4f4f4" stroke="#8f8f8f" stroke-width="1.4"/><text x="266" y="704" font-family="'Segoe UI', 'DejaVu Sans', Arial, sans-serif" font-size="11" font-weight="normal" fill="#3a3a3a" text-anchor="start">14:00</text><rect x="326.0" y="678" width="226.0" height="36" rx="4" fill="#f4f4f4" stroke="#8f8f8f" stroke-width="1.4"/><rect x="558.0" y="678" width="226.0" height="36" rx="4" fill="#f4f4f4" stroke="#8f8f8f" stroke-width="1.4"/><rect x="790.0" y="678" width="226.0" height="36" rx="4" fill="#f4f4f4" stroke="#8f8f8f" stroke-width="1.4"/><rect x="1022.0" y="678" width="226.0" height="36" rx="4" fill="#bdbdbd" stroke="#8f8f8f" stroke-width="1.4"/><rect x="1022.0" y="678" width="5" height="36" rx="2" fill="#5f5f5f" stroke="none" stroke-width="1.4"/><rect x="1036.0" y="688" width="90" height="6" rx="4" fill="#ffffff" stroke="none" stroke-width="1.4"/><rect x="1036.0" y="699" width="54.0" height="6" rx="4" fill="#ffffff" stroke="none" stroke-width="1.4"/><text x="266" y="746" font-family="'Segoe UI', 'DejaVu Sans', Arial, sans-serif" font-size="11" font-weight="normal" fill="#3a3a3a" text-anchor="start">14:30</text><rect x="326.0" y="720" width="226.0" height="36" rx="4" fill="#f4f4f4" stroke="#8f8f8f" stroke-width="1.4"/><rect x="558.0" y="720" width="226.0" height="36" rx="4" fill="#f4f4f4" stroke="#8f8f8f" stroke-width="1.4"/><rect x="790.0" y="720" width="226.0" height="36" rx="4" fill="#bdbdbd" stroke="#8f8f8f" stroke-width="1.4"/><rect x="790.0" y="720" width="5" height="36" rx="2" fill="#5f5f5f" stroke="none" stroke-width="1.4"/><rect x="804.0" y="730" width="90" height="6" rx="4" fill="#ffffff" stroke="none" stroke-width="1.4"/><rect x="804.0" y="741" width="54.0" height="6" rx="4" fill="#ffffff" stroke="none" stroke-width="1.4"/><rect x="1022.0" y="720" width="226.0" height="36" rx="4" fill="#f4f4f4" stroke="#8f8f8f" stroke-width="1.4"/><circle cx="246" cy="258" r="11" fill="#ffffff" stroke="#5f5f5f" stroke-width="1.2"/><text x="246" y="262" font-family="'Segoe UI', 'DejaVu Sans', Arial, sans-serif" font-size="11" font-weight="bold" fill="#3a3a3a" text-anchor="middle">1</text></svg>