<svg xmlns="http://www.w3.org/2000/svg" width="360" height="740" viewBox="0 0 360 740"><rect x="0" y="0" width="360" height="740" rx="0" fill="#ffffff" stroke="none" stroke-width="1.4"/><rect x="0" y="0" width="360" height="56" rx="0" fill="#ffffff" stroke="#8f8f8f" stroke-width="1.4"/><rect x="12" y="14" width="30" height="28" rx="6" fill="#fff" stroke="#8f8f8f" stroke-width="1.4"/><rect x="19" y="21" width="16" height="2" rx="1" fill="#5f5f5f" stroke="none" stroke-width="1.4"/><rect x="19" y="27" width="16" height="2" rx="1" fill="#5f5f5f" stroke="none" stroke-width="1.4"/><rect x="19" y="33" width="16" height="2" rx="1" fill="#5f5f5f" stroke="none" stroke-width="1.4"/><text x="54" y="34" font-family="'Segoe UI', 'DejaVu Sans', Arial, sans-serif" font-size="16" font-weight="bold" fill="#3a3a3a" text-anchor="start">Agenda</text><circle cx="330" cy="28" r="14" fill="#fff" stroke="#8f8f8f" stroke-width="1.2"/><rect x="16" y="70" width="328" height="210" rx="8" fill="#ffffff" stroke="#8f8f8f" stroke-width="1.4"/><circle cx="44" cy="102" r="13" fill="#fff" stroke="#8f8f8f" stroke-width="1.2"/><rect x="64" y="88" width="50" height="28" rx="6" fill="#ffffff" stroke="#5f5f5f" stroke-width="1.4"/><text x="89.0" y="106.32" font-family="'Segoe UI', 'DejaVu Sans', Arial, sans-serif" font-size="12" font-weight="bold" fill="#3a3a3a" text-anchor="middle">Hoje</text><circle cx="134" cy="102" r="13" fill="#fff" stroke="#8f8f8f" stroke-width="1.2"/><text x="32" y="141" font-family="'Segoe UI', 'DejaVu Sans', Arial, sans-serif" font-size="11" font-weight="bold" fill="#3a3a3a" text-anchor="start">Data</text><rect x="32" y="148" width="230" height="32" rx="5" fill="#f4f4f4" stroke="#8f8f8f" stroke-width="1.4"/><rect x="270" y="148" width="58" height="32" rx="6" fill="#ffffff" stroke="#5f5f5f" stroke-width="1.4"/><text x="299.0" y="168.32" font-family="'Segoe UI', 'DejaVu Sans', Arial, sans-serif" font-size="12" font-weight="bold" fill="#3a3a3a" text-anchor="middle">Ir</text><text x="32" y="199" font-family="'Segoe UI', 'DejaVu Sans', Arial, sans-serif" font-size="11" font-weight="bold" fill="#3a3a3a" text-anchor="start">Barbeiro</text><rect x="32" y="206" width="296" height="32" rx="5" fill="#f4f4f4" stroke="#8f8f8f" stroke-width="1.4"/><text x="312" y="226.0" font-family="'Segoe UI', 'DejaVu Sans', Arial, sans-serif" font-size="12" font-weight="normal" fill="#3a3a3a" text-anchor="start">▾</text><rect x="32" y="246" width="56" height="26" rx="6" fill="#bdbdbd" stroke="#5f5f5f" stroke-width="2"/><text x="60.0" y="263.0" font-family="'Segoe UI', 'DejaVu Sans', Arial, sans-serif" font-size="11" font-weight="bold" fill="#3a3a3a" text-anchor="middle">Lista</text><rect x="94" y="246" width="110" height="26" rx="6" fill="#ffffff" stroke="#8f8f8f" stroke-width="1.2"/><text x="149.0" y="263.0" font-family="'Segoe UI', 'DejaVu Sans', Arial, sans-serif" font-size="11" font-weight="bold" fill="#3a3a3a" text-anchor="middle">Linha do tempo</text><rect x="174" y="292" width="170" height="36" rx="6" fill="#5f5f5f" stroke="#5f5f5f" stroke-width="1.4"/><text x="259.0" y="314.32" font-family="'Segoe UI', 'DejaVu Sans', Arial, sans-serif" font-size="12" font-weight="bold" fill="#ffffff" text-anchor="middle">Novo Agendamento</text><text x="16" y="356" font-family="'Segoe UI', 'DejaVu Sans', Arial, sans-serif" font-size="14" font-weight="bold" fill="#3a3a3a" text-anchor="start">Quarta-feira, 07/10/2026</text><rect x="16" y="372" width="328" height="166" rx="8" fill="#ffffff" stroke="#8f8f8f" stroke-width="1.4"/><text x="30" y="398" font-family="'Segoe UI', 'DejaVu Sans', Arial, sans-serif" font-size="11" font-weight="normal" fill="#666" text-anchor="start">Hora</text><rect x="220" y="390" width="66.0" height="8" rx="4" fill="#d4d4d4" stroke="none" stroke-width="1.4"/><text x="30" y="424" font-family="'Segoe UI', 'DejaVu Sans', Arial, sans-serif" font-size="11" font-weight="normal" fill="#666" text-anchor="start">Cliente</text><rect x="220" y="416" width="66.0" height="8" rx="4" fill="#d4d4d4" stroke="none" stroke-width="1.4"/><text x="30" y="450" font-family="'Segoe UI', 'DejaVu Sans', Arial, sans-serif" font-size="11" font-weight="normal" fill="#666" text-anchor="start">Barbeiro</text><rect x="220" y="442" width="66.0" height="8" rx="4" fill="#d4d4d4" stroke="none" stroke-width="1.4"/><text x="30" y="476" font-family="'Segoe UI', 'DejaVu Sans', Arial, sans-serif" font-size="11" font-weight="normal" fill="#666" text-anchor="start">Status</text><rect x="220" y="468" width="66.0" height="8" rx="4" fill="#d4d4d4" stroke="none" stroke-width="1.4"/><rect x="30" y="496" width="80" height="30" rx="6" fill="#ffffff" stroke="#5f5f5f" stroke-width="1.4"/><text x="70.0" y="515.32" font-family="'Segoe UI', 'DejaVu Sans', Arial, sans-serif" font-size="12" font-weight="bold" fill="#3a3a3a" text-anchor="middle">Editar</text><rect x="118" y="496" width="86" height="30" rx="6" fill="#ffffff" stroke="#5f5f5f" stroke-width="1.4"/><text x="161.0" y="515.32" font-family="'Segoe UI', 'DejaVu Sans', Arial, sans-serif" font-size="12" font-weight="bold" fill="#3a3a3a" text-anchor="middle">Cancelar</text><rect x="212" y="496" width="104" height="30" rx="6" fill="#5f5f5f" stroke="#5f5f5f" stroke-width="1.4"/><text x="264.0" y="515.32" font-family="'Segoe UI', 'DejaVu Sans', Arial, sans-serif" font-size="12" font-weight="bold" fill="#ffffff" text-anchor="middle">Finalizar</text><rect x="16" y="550" width="328" height="166" rx="8" fill="#ffffff" stroke="#8f8f8f" stroke-width="1.4"/><text x="30" y="576" font-family="'Segoe UI', 'DejaVu Sans', Arial, sans-serif" font-size="11" font-weight="normal" fill="#666" text-anchor="start">Hora</text><rect x="220" y="568" width="66.0" height="8" rx="4" fill="#d4d4d4" stroke="none" stroke-width="1.4"/><text x="30" y="602" font-family="'Segoe UI', 'DejaVu Sans', Arial, sans-serif" font-size="11" font-weight="normal" fill="#666" text-anchor="start">Cliente</text><rect x="220" y="594" width="66.0" height="8" rx="4" fill="#d4d4d4" stroke="none" stroke-width="1.4"/><text x="30" y="628" font-family="'Segoe UI', 'DejaVu Sans', Arial, sans-serif" font-size="11" font-weight="normal" fill="#666" text-anchor="start">Barbeiro</text><rect x="220" y="620" width="66.0" height="8" rx="4" fill="#d4d4d4" stroke="none" stroke-width="1.4"/><text x="30" y="654" font-family="'Segoe UI', 'DejaVu Sans', Arial, sans-serif" font-size="11" font-weight="normal" fill="#666" text-anchor="start">Status</text><rect x="220" y="646" width="66.0" height="8" rx="4" fill="#d4d4d4" stroke="none" stroke-width="1.4"/><rect x="30" y="674" width="80" height="30" rx="6" fill="#ffffff" stroke="#5f5f5f" stroke-width="1.4"/><text x="70.0" y="693.32" font-family="'Segoe UI', 'DejaVu Sans', Arial, sans-serif" font-size="12" font-weight="bold" fill="#3a3a3a" text-anchor="middle">Editar</text><rect x="118" y="674" width="86" height="30" rx="6" fill="#ffffff" stroke="#5f5f5f" stroke-width="1.4"/><text x="161.0" y="693.32" font-family="'Segoe UI', 'DejaVu Sans', Arial, sans-serif" font-size="12" font-weight="bold" fill="#3a3a3a" text-anchor="middle">Cancelar</text><rect x="212" y="674" width="104" height="30" rx="6" fill="#5f5f5f" stroke="#5f5f5f" stroke-width="1.4"/><text x="264.0" y="693.32" font-family="'Segoe UI', 'DejaVu Sans', Arial, sans-serif" font-size="12" font-weight="bold" fill="#ffffff" text-anchor="middle">Finalizar</text><circle cx="334" cy="372" r="11" fill="#ffffff" stroke="#5f5f5f" stroke-width="1.2"/><text x="334" y="376" font-family="'Segoe UI', 'DejaVu Sans', Arial, sans-serif" font-size="11" font-weight="bold" fill="#3a3a3a" text-anchor="middle">1</text></svg>